<!DOCTYPE svg PUBLIC "-//W3C//DTD SVG 1.1//EN" "http://www.w3.org/Graphics/SVG/1.1/DTD/svg11.dtd">
<!-- Uploaded to: SVG Repo, www.svgrepo.com, Transformed by: SVG Repo Mixer Tools -->
<svg width="800px" height="800px" viewBox="-12.8 -12.8 153.60 153.60" xmlns="http://www.w3.org/2000/svg" xmlns:xlink="http://www.w3.org/1999/xlink" aria-hidden="true" role="img" class="iconify iconify--noto" preserveAspectRatio="xMidYMid meet" fill="#ffffff" stroke="#ffffff">
<g id="SVGRepo_bgCarrier" stroke-width="0">
<rect x="-12.8" y="-12.8" width="153.60" height="153.60" rx="0" fill="#e32879" strokewidth="0"/>
</g>
<g id="SVGRepo_tracerCarrier" stroke-linecap="round" stroke-linejoin="round"/>
<g id="SVGRepo_iconCarrier">
<path d="M109.48 16.34H84.84c-1.28 0-2.33 1.04-2.33 2.33v36.27H45.5V18.68c0-1.29-1.04-2.33-2.34-2.33H18.53a2.34 2.34 0 0 0-2.34 2.33v99.96c0 1.29 1.05 2.33 2.34 2.33h24.63a2.34 2.34 0 0 0 2.34-2.33V76.15h37.02v42.48c0 1.29 1.05 2.33 2.33 2.33h24.64c1.29 0 2.33-1.05 2.33-2.33V18.68a2.35 2.35 0 0 0-2.34-2.34z" fill="#ffffff"/>
</g>
</svg>